<mxfile host="app.diagrams.net" agent="Mozilla/5.0 (Windows NT 10.0; Win64; x64) AppleWebKit/537.36 (KHTML, like Gecko) Chrome/135.0.0.0 Safari/537.36" version="26.2.6">
  <diagram name="Page-1" id="QxRaVYfzGfqgETBdcA6s">
    <mxGraphModel dx="1097" dy="810" grid="1" gridSize="10" guides="1" tooltips="1" connect="1" arrows="1" fold="1" page="1" pageScale="1" pageWidth="850" pageHeight="1100" math="0" shadow="0">
      <root>
        <mxCell id="0" />
        <mxCell id="1" parent="0" />
        <mxCell id="it0D2wNiWYbQQB2_-cOl-2" value="Problems" style="swimlane;whiteSpace=wrap;html=1;align=center;fontStyle=0;fontFamily=Helvetica;" vertex="1" parent="1">
          <mxGeometry x="310" y="40" width="200" height="280" as="geometry">
            <mxRectangle x="40" y="40" width="140" height="30" as="alternateBounds" />
          </mxGeometry>
        </mxCell>
        <mxCell id="it0D2wNiWYbQQB2_-cOl-4" value="&amp;nbsp;+ problemTitle : String&lt;div&gt;&amp;nbsp;+ problemDescription : String&lt;/div&gt;&lt;div&gt;&amp;nbsp;+ problemTags[ ] : String[ ]&amp;nbsp;&lt;/div&gt;&lt;div&gt;&amp;nbsp;+ problemSolution: String&lt;/div&gt;&lt;div&gt;&amp;nbsp;+ problemTests[ ] : Tests[ ]&lt;/div&gt;" style="rounded=0;whiteSpace=wrap;html=1;align=left;labelBorderColor=none;textShadow=0;verticalAlign=top;" vertex="1" parent="it0D2wNiWYbQQB2_-cOl-2">
          <mxGeometry y="23" width="200" height="87" as="geometry" />
        </mxCell>
      </root>
    </mxGraphModel>
  </diagram>
</mxfile>
